<svg xmlns="http://www.w3.org/2000/svg" width="1121" height="1145" viewBox="0 0 1121 1145">
  <defs>
    <style>
      .cls-1 {
        fill: #fff;
        fill-rule: evenodd;
      }
    </style>
  </defs>
  <path id="Retângulo_1" data-name="Retângulo 1" class="cls-1" d="M684,5h11V568h470v12h-43c4.47,228.345-135.323,379.437-278,463-44.4,26-94.5,36.75-149,54v53H684v-51C383.259,1144.53,171.453,985.334,86,786,41.809,682.917,25.81,526.355,71,409,156.1,188.006,362.267,15.279,684,61V5Zm0,996V580H235V568H684V138c-215.345-3.977-359.222,126.031-421,277-35.278,86.209-39.539,211.622-4,302C320.7,873.905,465.031,1001.7,684,1001ZM520,242c40.646-.977,78.623,5.322,98,26-0.1,12.805-4.931,21.693-14,25-13.419,4.894-33.359-4.813-47-7-24.2-3.88-50.824,1.418-70,5v52h1c21.909-7.351,99.421-12.149,109,8,3.706,6.307,3.081,13.891,0,20-12.1,23.979-47.481,5.553-76,10l-34,7c0.953,43.787,16.058,133.308-35,120-20.373-25.619-10-146.8-10-194,0-19.567-3.723-51.257,6-62C458.094,240.848,501,249.221,520,242ZM695,580v421h1l36-3c31.835-5.722,63.29-10.371,91-21,152.578-58.525,292.22-190.855,295-397H695ZM466,625c65.822-.089,112.333,19.023,139,58,12.108,17.7,19.691,48.737,6,71-11.262,18.314-30.457,22.842-48,35l2,1c11.136,10.556,99.491,55.713,55,81-17.513,9.954-28.743-6.618-38-14-27.376-21.829-57.808-42.256-96-53,0.728,29.6,10.889,72.76-21,73-7.957.06-14.527-2.621-18-7-9.946-12.542-4.007-44.571-4-64V687c0-14.206-2.471-34.055,2-45C449.018,632.162,456.457,629.6,466,625ZM832,773c-0.217,21.887-2.122,43.968,2,63,38.081,6.069,123.465-19.885,110,31-12.8,9.535-24.483,6.882-46,10-30.036,4.353-76.816,2.356-93-12-22.791-20.216-15.753-111.246-10-149,4.542-29.8-9.565-61.768,6-81,10.9-2.789,17.105,1.929,27,1,29.945-2.81,114.048-21.119,129,10,7.252,11.65-2.552,24.921-11,28-15.02,3.812-33.815-3.671-49-6-22.656-3.476-43.128,4.158-61,7q-0.5,29-1,58l44-4c29.99-4.693,77.3-14.475,68,26C932.43,769.681,861.552,772.826,832,773ZM487,671v85c42.735,0.873,64.965-8.307,86-28C573.294,688.343,527.01,671.2,487,671Z" transform="translate(-44 -5)"/>
</svg>
